<svg t="1724235288239" class="icon" viewBox="0 0 1024 1024" version="1.1" xmlns="http://www.w3.org/2000/svg" p-id="1582"
     width="200" height="200">
    <path d="M337.333 517.667c77.406 0 141.974 54.967 156.8 127.998l440.534 0.002c17.673 0 32 14.327 32 32 0 17.496-14.042 31.713-31.471 31.995l-0.53 0.005-440.534 0.001C479.307 782.7 414.74 837.667 337.333 837.667S195.36 782.699 180.534 709.668l-99.2-0.001c-17.674 0-32-14.327-32-32 0-17.497 14.041-31.713 31.47-31.996l0.53-0.004 99.2-0.002c14.825-73.03 79.393-127.998 156.8-127.998z m0 64c-53.019 0-96 42.98-96 96 0 53.019 42.981 96 96 96 53.02 0 96-42.981 96-96 0-53.02-42.98-96-96-96z m341.334-405.334c77.406 0 141.974 54.968 156.799 127.999l99.2 0.001c17.674 0 32 14.327 32 32 0 17.497-14.041 31.713-31.47 31.996l-0.53 0.004-99.2 0.003c-14.826 73.03-79.394 127.997-156.8 127.997-77.405 0-141.973-54.967-156.798-127.997l-440.535-0.003c-17.673 0-32-14.327-32-32 0-17.496 14.042-31.713 31.471-31.995l0.53-0.005 440.534-0.001c14.825-73.031 79.393-127.999 156.799-127.999z m0 64c-53.02 0-96 42.981-96 96 0 53.02 42.98 96 96 96 53.019 0 96-42.98 96-96 0-53.019-42.981-96-96-96z"
           p-id="1583"></path>
</svg>